<?xml version="1.0" encoding="UTF-8"?>
<svg id="Calque_2" data-name="Calque 2" xmlns="http://www.w3.org/2000/svg" viewBox="0 0 101.16 127.26">
  <g id="Calque_1-2" data-name="Calque 1">
    <path d="M57.89,63.04c-4.61-1.51-9.08-2.08-13.88-2.74,22.59-2.68,47.16,5.99,57.15,27.7-22.07,4.75-40.1,21.2-52.79,39.27C36.96,109.53,19.83,95.48,0,88.24v-45.56C19.07,32.43,35.98,17.97,48.11,0c12.83,18.22,29.8,33.74,50.18,43.02-19.92,5.48-37.03-2.41-50.11-17.46-9.27,9.82-20.14,17.74-31.92,24.23v30.73c12.14,5.72,23.06,13.6,32.1,23.53,8.78-9.49,19.64-17.86,31.62-22.78-3.72-9.45-12.6-15.38-22.08-18.21Z"/>
  </g>
</svg>